<?xml version="1.0" encoding="UTF-8" standalone="no"?>
<svg width="120px" height="195px" viewBox="0 0 120 195" version="1.1" xmlns="http://www.w3.org/2000/svg" xmlns:xlink="http://www.w3.org/1999/xlink" xmlns:sketch="http://www.bohemiancoding.com/sketch/ns">
    <!-- Generator: Sketch 3.3.1 (12002) - http://www.bohemiancoding.com/sketch -->
    <title>Group</title>
    <desc>Created with Sketch.</desc>
    <defs></defs>
    <g id="Page-1" stroke="none" stroke-width="1" fill="none" fill-rule="evenodd" sketch:type="MSPage">
        <g id="Group" sketch:type="MSLayerGroup" transform="translate(0.000000, 1.000000)" stroke="#000000">
            <path d="M57.69,22.05 C78.313,22.05 95.03,40.8 95.03,42.514 C95.03,44.228 78.312,45.618 57.69,45.618 C37.068,45.618 20.35,44.228 20.35,42.514 C20.35,40.8 37.068,22.05 57.69,22.05 L57.69,22.05 Z" id="Shape" stroke-width="0.7498" fill="#FFFFFF" sketch:type="MSShapeGroup"></path>
            <g transform="translate(47.000000, 0.000000)" id="Shape" stroke-width="0.7498" sketch:type="MSShapeGroup">
                <path d="M10.69,18.066 C16.395,18.066 21.019,19.952 21.019,22.871 C21.019,25.79 16.395,27.57 10.69,27.57 C4.985,27.57 0.361,25.79 0.361,22.871 C0.361,19.953 4.986,18.066 10.69,18.066 L10.69,18.066 Z" fill="#FFFFFF"></path>
                <path d="M5.609,18.814 C6.432,19.566 6.253,21.17 5.209,22.397 C4.165,23.623 2.652,24.006 1.83,23.254 C1.008,22.502 1.187,20.897 2.23,19.671 C3.274,18.445 4.787,18.061 5.609,18.814 L5.609,18.814 Z" fill="#FFFFFF"></path>
                <path d="M15.771,18.814 C14.949,19.566 15.128,21.17 16.171,22.397 C17.215,23.623 18.728,24.006 19.551,23.254 C20.374,22.502 20.195,20.897 19.151,19.671 C18.107,18.445 16.594,18.061 15.771,18.814 L15.771,18.814 Z" fill="#FFFFFF"></path>
                <path d="M7.577,19.813 C8.722,20.288 9.141,22.031 8.515,23.708 C7.889,25.384 6.453,26.358 5.308,25.883 C4.163,25.408 3.744,23.664 4.37,21.988 C4.997,20.312 6.432,19.337 7.577,19.813 L7.577,19.813 Z" fill="#FFFFFF"></path>
                <path d="M13.761,19.829 C12.623,20.32 12.228,22.07 12.879,23.736 C13.529,25.403 14.978,26.357 16.116,25.865 C17.254,25.373 17.649,23.624 16.998,21.957 C16.348,20.291 14.898,19.338 13.761,19.829 L13.761,19.829 Z" fill="#FFFFFF"></path>
                <path d="M2.347,21.279 C2.901,19.847 4.401,18.631 5.742,18.919"></path>
                <path d="M19.034,21.279 C18.48,19.847 16.98,18.631 15.639,18.919"></path>
                <path d="M5.564,23.941 C5.856,21.691 6.624,19.627 7.338,19.747"></path>
                <path d="M15.833,23.928 C15.508,21.682 14.711,19.629 13.998,19.76"></path>
                <g transform="translate(8.000000, 20.000000)">
                    <path d="M2.69,0.333 C2.761,0.349 3.075,0.102 3.618,0.257 C4.611,0.542 5.263,2.045 5.263,3.401 C5.263,5.194 4.112,6.648 2.69,6.648 C1.269,6.648 0.117,5.194 0.117,3.401 C0.117,2.191 0.669,1.012 1.42,0.468 C2.07,2.77555756e-17 2.524,0.295 2.69,0.333 L2.69,0.333 Z" fill="#FFFFFF"></path>
                    <path d="M2.69,4.755 L2.69,0.196"></path>
                </g>
                <path d="M10.69,14.976 C14.076,14.976 16.82,16.013 16.82,18.217 C16.82,20.422 14.075,21.248 10.69,21.248 C7.305,21.248 4.56,20.421 4.56,18.217 C4.56,16.013 7.305,14.976 10.69,14.976 L10.69,14.976 Z" fill="#FFFFFF"></path>
                <path d="M10.69,12.778 C12.809,12.778 14.525,13.514 14.525,15.078 C14.525,16.642 12.808,17.229 10.69,17.229 C8.572,17.229 6.854,16.642 6.854,15.078 C6.854,13.514 8.572,12.778 10.69,12.778 L10.69,12.778 Z" fill="#FFFFFF"></path>
                <path d="M10.69,0.1 C11.592,0.1 12.323,0.83 12.323,1.732 C12.323,3.199 11.736,3.216 11.736,4.823 C11.736,7.705 13.971,8.584 13.971,11.209 C13.971,13.021 12.502,14.49 10.69,14.49 C8.878,14.49 7.408,13.021 7.408,11.209 C7.408,8.584 9.644,7.706 9.644,4.823 C9.644,3.216 9.057,3.198 9.057,1.732 C9.058,0.831 9.789,0.1 10.69,0.1 L10.69,0.1 Z" fill="#FFFFFF"></path>
            </g>
            <path d="M57.691,47.987 C60.318,47.987 62.46,45.845 62.46,43.218 C62.46,40.591 60.318,38.449 57.691,38.449 C55.065,38.449 52.922,40.591 52.922,43.218 C52.922,45.845 55.064,47.987 57.691,47.987 L57.691,47.987 Z" id="Shape" stroke-width="0.7498" fill="#FFFFFF" sketch:type="MSShapeGroup"></path>
            <g transform="translate(52.000000, 29.000000)" fill="#FFFFFF" sketch:type="MSShapeGroup">
                <g transform="translate(0.000000, 1.000000)" id="Oval">
                    <g>
                        <ellipse stroke-width="0.749768725" transform="translate(3.795309, 8.714083) rotate(-53.933449) translate(-3.795309, -8.714083) " cx="3.7953094" cy="8.7140832" rx="1.75892663" ry="1.07695508"></ellipse>
                        <ellipse stroke-width="0.749843926" transform="translate(2.874616, 6.704886) rotate(-17.853369) translate(-2.874616, -6.704886) " cx="2.8746162" cy="6.7048862" rx="1.75910305" ry="1.07806315"></ellipse>
                        <ellipse stroke-width="0.749786458" transform="translate(2.713915, 4.592395) rotate(18.228394) translate(-2.713915, -4.592395) " cx="2.7139152" cy="4.5923954" rx="1.75896823" ry="1.07798053"></ellipse>
                        <ellipse stroke-width="0.749792" transform="translate(3.693375, 2.580091) rotate(54.302468) translate(-3.693375, -2.580091) " cx="3.6933748" cy="2.5800912" rx="1.75898123" ry="1.07698851"></ellipse>
                    </g>
                    <g transform="translate(5.000000, 0.000000)">
                        <ellipse stroke-width="0.749752266" transform="translate(2.574786, 8.734140) rotate(233.925444) translate(-2.574786, -8.734140) " cx="2.5747858" cy="8.73414" rx="1.75888802" ry="1.07793137"></ellipse>
                        <ellipse stroke-width="0.749843926" transform="translate(3.518642, 6.692599) rotate(197.853369) translate(-3.518642, -6.692599) " cx="3.5186423" cy="6.6925992" rx="1.75910305" ry="1.07806315"></ellipse>
                        <ellipse stroke-width="0.749786458" transform="translate(3.667591, 4.606769) rotate(161.771606) translate(-3.667591, -4.606769) " cx="3.6675912" cy="4.6067686" rx="1.75896823" ry="1.07798053"></ellipse>
                        <ellipse stroke-width="0.749792" transform="translate(2.685145, 2.588207) rotate(125.697532) translate(-2.685145, -2.588207) " cx="2.6851448" cy="2.5882068" rx="1.75898123" ry="1.07698851"></ellipse>
                    </g>
                </g>
                <g transform="translate(4.000000, 0.000000)" id="Shape" stroke-width="0.7498">
                    <path d="M1.69,12.267 C2.253,12.267 2.711,11.518 2.711,10.6 C2.711,9.682 2.253,8.933 1.69,8.933 C1.128,8.933 0.669,9.682 0.669,10.6 C0.669,11.518 1.128,12.267 1.69,12.267 L1.69,12.267 Z"></path>
                    <path d="M1.69,4.355 C2.314,4.355 2.822,3.525 2.822,2.507 C2.822,1.489 2.314,0.659 1.69,0.659 C1.067,0.659 0.558,1.489 0.558,2.507 C0.558,3.525 1.067,4.355 1.69,4.355 L1.69,4.355 Z"></path>
                    <path d="M1.69,9.391 C2.563,9.391 3.274,8.229 3.274,6.805 C3.274,5.381 2.563,4.219 1.69,4.219 C0.817,4.219 0.106,5.381 0.106,6.805 C0.106,8.229 0.818,9.391 1.69,9.391 L1.69,9.391 Z"></path>
                </g>
            </g>
            <g transform="translate(51.000000, 38.000000)" id="Shape" stroke-width="0.7498" fill="#FFFFFF" sketch:type="MSShapeGroup">
                <path d="M11.057,0.327 C11.466,0.493 10.854,1.111 11.493,1.092 C12.056,1.167 11.361,0.513 12.06,0.424 C12.758,0.335 12.986,0.813 12.917,1.28 C12.816,1.961 11.693,1.697 11.639,2.315 C11.586,2.915 12.568,2.183 12.594,3.188 C12.618,4.135 10.698,2.807 10.775,3.548 C10.821,3.992 11.121,4.327 10.176,4.514 C9.814,4.586 9.506,4.214 9.506,3.844 C9.506,3.13 10.395,3.569 10.395,0.99 C10.394,0.624 10.648,0.162 11.057,0.327 L11.057,0.327 Z"></path>
                <path d="M2.324,0.327 C1.915,0.493 2.527,1.111 1.888,1.092 C1.326,1.167 2.02,0.513 1.322,0.424 C0.624,0.335 0.396,0.813 0.465,1.28 C0.566,1.961 1.689,1.697 1.743,2.315 C1.796,2.915 0.814,2.183 0.788,3.188 C0.763,4.135 2.684,2.807 2.607,3.548 C2.561,3.992 2.261,4.327 3.206,4.514 C3.568,4.586 3.875,4.214 3.875,3.844 C3.875,3.13 2.987,3.569 2.987,0.99 C2.987,0.624 2.733,0.162 2.324,0.327 L2.324,0.327 Z"></path>
            </g>
            <circle id="Oval" stroke-width="0.7498" fill="#FFFFFF" sketch:type="MSShapeGroup" cx="57.69" cy="44.606" r="1.972"></circle>
            <circle id="Oval" stroke-width="0.7498" fill="#FFFFFF" sketch:type="MSShapeGroup" cx="57.69" cy="44.632" r="1.972"></circle>
            <circle id="Oval" stroke-width="0.7498" fill="#FFFFFF" sketch:type="MSShapeGroup" cx="57.69" cy="44.365" r="1.972"></circle>
            <circle id="Oval" stroke-width="0.7498" fill="#FFFFFF" sketch:type="MSShapeGroup" cx="57.69" cy="44.099" r="1.972"></circle>
            <circle id="Oval" stroke-width="0.7498" fill="#FFFFFF" sketch:type="MSShapeGroup" cx="57.69" cy="44.125" r="1.972"></circle>
            <circle id="Oval" stroke-width="0.7498" fill="#FFFFFF" sketch:type="MSShapeGroup" cx="57.69" cy="43.858" r="1.972"></circle>
            <circle id="Oval" stroke-width="0.7498" fill="#FFFFFF" sketch:type="MSShapeGroup" cx="57.69" cy="43.592" r="1.972"></circle>
            <rect id="Rectangle-path" stroke-width="0.7498" fill="#FFFFFF" sketch:type="MSShapeGroup" x="55.88" y="75.393" width="3.621" height="109.92"></rect>
            <circle id="Oval" stroke-width="0.7498" fill="#FFFFFF" sketch:type="MSShapeGroup" cx="57.69" cy="43.325" r="1.972"></circle>
            <circle id="Oval" stroke-width="0.7498" fill="#FFFFFF" sketch:type="MSShapeGroup" cx="57.69" cy="43.059" r="1.972"></circle>
            <circle id="Oval" stroke-width="0.7498" fill="#FFFFFF" sketch:type="MSShapeGroup" cx="57.69" cy="44.606" r="1.972"></circle>
            <circle id="Oval" stroke-width="0.7498" fill="#FFFFFF" sketch:type="MSShapeGroup" cx="57.69" cy="44.632" r="1.972"></circle>
            <g transform="translate(31.000000, 51.000000)" id="Shape" stroke-width="0.7498" sketch:type="MSShapeGroup">
                <path d="M35.739,17.479 C45.671,26.893 45.902,47.392 37.212,57.734 C30.913,65.231 21.938,64.987 15.828,57.363 C7.449,46.905 7.754,26.617 17.743,17.35 C23.254,12.237 30.285,12.312 35.739,17.479 L35.739,17.479 L35.739,17.479 Z M17.37,71.735 C18.183,75.162 20.122,77.962 22.638,79.431 C22.697,79.465 22.755,79.499 22.814,79.532 L22.814,79.532 C22.873,79.565 22.932,79.597 22.992,79.628 L22.992,79.628 C23.052,79.66 23.112,79.69 23.172,79.72 L23.172,79.72 L23.353,79.807 L23.536,79.89 L23.537,79.89 C23.599,79.916 23.66,79.943 23.722,79.968 L23.722,79.968 L23.909,80.041 C23.971,80.064 24.034,80.087 24.097,80.11 L24.097,80.11 L24.286,80.174 C24.349,80.194 24.413,80.214 24.477,80.233 L24.477,80.233 L24.669,80.287 C24.733,80.305 24.798,80.321 24.863,80.336 L24.863,80.336 L25.058,80.38 L25.254,80.42 C25.32,80.432 25.386,80.444 25.452,80.454 L25.452,80.454 C25.518,80.464 25.584,80.474 25.651,80.483 L25.652,80.483 L25.852,80.507 C25.918,80.514 25.986,80.52 26.053,80.525 L26.053,80.525 C26.12,80.53 26.188,80.535 26.256,80.539 L26.256,80.539 C26.323,80.542 26.392,80.545 26.459,80.547 L26.46,80.547 C26.527,80.548 26.596,80.549 26.664,80.549 L26.664,80.549 C26.733,80.549 26.801,80.548 26.869,80.547 L26.87,80.547 C26.938,80.545 27.006,80.543 27.073,80.539 L27.074,80.539 C27.141,80.536 27.209,80.531 27.276,80.525 L27.276,80.525 C27.343,80.52 27.411,80.514 27.477,80.507 L27.478,80.507 C27.545,80.5 27.612,80.492 27.678,80.483 L27.679,80.483 C27.745,80.474 27.812,80.464 27.878,80.454 L27.878,80.454 C27.944,80.443 28.01,80.432 28.076,80.42 L28.076,80.42 C28.142,80.407 28.207,80.395 28.272,80.38 L28.273,80.38 C28.338,80.366 28.403,80.351 28.468,80.336 L28.468,80.336 C28.533,80.321 28.597,80.304 28.662,80.287 L28.662,80.287 C28.726,80.27 28.79,80.252 28.854,80.233 L28.854,80.233 C28.917,80.214 28.981,80.195 29.045,80.174 L29.045,80.174 C29.108,80.153 29.171,80.132 29.234,80.11 L29.235,80.11 C29.298,80.088 29.36,80.065 29.423,80.041 L29.424,80.041 C29.486,80.018 29.548,79.993 29.61,79.968 L29.61,79.968 C29.672,79.943 29.734,79.917 29.795,79.89 L29.796,79.89 L29.979,79.807 C30.04,79.779 30.1,79.75 30.16,79.72 L30.16,79.72 C30.22,79.69 30.28,79.66 30.34,79.628 L30.34,79.628 L30.518,79.532 L30.694,79.431 C33.21,77.963 35.149,75.16 35.963,71.735 L35.971,71.73 C41.263,68.759 44.135,63.955 45.864,58.301 C46.086,57.39 46.156,57.283 46.895,57.267 C60.939,54.377 47.778,11.307 37.835,4.45 C31.028,-0.245 22.999,-0.42 16.058,4.069 C5.057,11.185 -7.349,54.433 6.427,57.268 C7.091,57.363 7.227,57.353 7.458,58.302 C9.186,63.956 12.058,68.76 17.351,71.731 L17.37,71.735 L17.37,71.735 Z" fill="#FFFFFF"></path>
                <g transform="translate(5.000000, 9.000000)">
                    <path d="M21.672,58.229 C31.824,58.229 40.104,45.274 40.104,29.391 C40.104,13.507 31.824,0.553 21.672,0.553 C11.52,0.553 3.24,13.508 3.24,29.391 C3.24,45.274 11.52,58.229 21.672,58.229 L21.672,58.229 Z"></path>
                    <path d="M36.651,53.272 C32.814,58.84 27.519,62.284 21.671,62.284 C15.805,62.284 10.495,58.819 6.655,53.219"></path>
                    <path d="M3.482,47.308 C1.563,42.666 0.459,37.229 0.459,31.418 C0.459,14.371 9.956,0.552 21.671,0.552 C33.386,0.552 42.884,14.371 42.884,31.418 C42.884,37.293 41.756,42.785 39.797,47.46"></path>
                    <path d="M42.577,48.091 C41.264,48.512 40.671,47.862 39.991,47.526 C39.31,47.189 38.824,47.033 38.38,47.086 C36.268,47.336 36.323,49.88 36.483,51.421 C36.756,54.049 37.257,55.895 34.931,59.891"></path>
                    <path d="M0.791,48.091 C2.104,48.512 2.698,47.862 3.377,47.526 C4.058,47.189 4.544,47.033 4.987,47.086 C7.099,47.336 7.044,49.88 6.884,51.421 C6.612,54.049 6.11,55.895 8.436,59.891"></path>
                </g>
            </g>
            <circle id="Oval" stroke-width="0.7498" fill="#FFFFFF" sketch:type="MSShapeGroup" cx="57.69" cy="44.365" r="1.972"></circle>
            <g transform="translate(2.000000, 76.000000)" id="Shape" stroke-width="0.7498" sketch:type="MSShapeGroup">
                <g>
                    <path d="M0.019,76.78 C13.698,53.315 24.534,28.648 29.245,1.389 L34.288,0.743 C32.432,27.792 26.356,50.579 17.946,71.764 C17.809,72.009 17.579,72.212 17.097,72.306 L16.103,76.566 C15.754,77.387 15.147,77.661 14.163,77.69 L12.951,81.861 C12.946,82.254 12.229,83.019 11.787,83.122 L9.525,89.265 C9.5,88.316 9.446,87.574 9.321,86.856 C9.014,85.091 8.644,85.111 9.33,83.123 L10.688,80.035 C10.177,79.755 9.97,79.002 10.235,78.257 L11.787,74.652 C11.185,74.128 11.157,73.372 11.504,72.599 L13.629,67.943 C12.562,67.714 11.604,67.822 10.509,67.846 L9.006,71.871 C8.737,72.346 7.983,72.431 7.066,72.389 L5.991,75.307 C5.903,75.545 5.786,75.781 5.644,76.001 C5.119,76.814 4.246,77.402 3.235,77.023 C0.82,76.112 0.054,76.85 0.019,76.78 L0.019,76.78 Z" fill="#FFFFFF"></path>
                    <path d="M5.209,76.526 C6.57,74.912 4.693,74.707 4.129,73.841 C3.59,73.014 4.123,72.423 4.658,72.231 C5.461,71.943 6.636,72.331 7.116,72.388 C9.924,72.722 9.111,70.421 8.4,70.148 C7.444,69.78 7.173,68.85 8.65,68.206 C9.889,67.666 12.052,67.768 12.611,67.82 C13.84,67.934 15.062,68.304 16.355,68.938 C17.336,69.417 18.106,70.042 18.107,70.805 C18.113,74.192 12.413,70.822 11.512,72.712 C11.188,73.391 11.221,74.458 11.932,74.62 C12.807,74.819 16.053,74.951 16.102,76.042 C16.192,78.008 14.18,77.646 12.74,77.497 C12.49,77.471 11.069,77.355 10.499,78.035 C8.693,80.193 13.058,80.319 12.838,81.974 C12.771,82.475 12.499,82.718 12.143,82.912 C11.788,83.106 10.916,82.864 10.382,83.026 C9.849,83.188 9.153,83.688 9.056,84.141"></path>
                    <path d="M29.358,4.24 C23.649,31.528 18.639,44.479 7.891,69.157"></path>
                    <path d="M5.854,66.765 C6.562,65.665 8.616,65.34 9.411,65.698"></path>
                    <path d="M10.671,63.176 C12.972,61.97 15.041,61.986 17.338,63.286 C18.537,63.964 19.561,64.953 20.143,66.119"></path>
                </g>
                <g transform="translate(77.000000, 0.000000)">
                    <path d="M34.362,76.78 C20.683,53.315 9.846,28.648 5.136,1.389 L0.093,0.743 C1.949,27.792 8.025,50.579 16.435,71.764 C16.572,72.009 16.802,72.212 17.284,72.306 L18.278,76.566 C18.627,77.387 19.233,77.661 20.217,77.69 L21.429,81.861 C21.434,82.254 22.151,83.019 22.593,83.122 L24.856,89.265 C24.881,88.316 24.935,87.574 25.06,86.856 C25.367,85.091 25.736,85.111 25.05,83.123 L23.692,80.035 C24.203,79.755 24.409,79.002 24.145,78.257 L22.593,74.652 C23.195,74.128 23.223,73.372 22.876,72.599 L20.751,67.943 C21.818,67.714 22.777,67.822 23.871,67.846 L25.374,71.871 C25.643,72.346 26.397,72.431 27.314,72.389 L28.389,75.307 C28.477,75.545 28.594,75.781 28.736,76.001 C29.261,76.814 30.134,77.402 31.145,77.023 C33.561,76.112 34.327,76.85 34.362,76.78 L34.362,76.78 Z" fill="#FFFFFF"></path>
                    <path d="M29.171,76.526 C27.81,74.912 29.687,74.707 30.251,73.841 C30.791,73.014 30.257,72.423 29.722,72.231 C28.919,71.943 27.744,72.331 27.264,72.388 C24.456,72.722 25.269,70.421 25.98,70.148 C26.937,69.78 27.206,68.85 25.731,68.206 C24.491,67.666 22.329,67.768 21.769,67.82 C20.54,67.934 19.318,68.304 18.024,68.938 C17.043,69.417 16.273,70.042 16.272,70.805 C16.266,74.192 21.966,70.822 22.867,72.712 C23.191,73.391 23.158,74.458 22.447,74.62 C21.572,74.819 18.326,74.951 18.277,76.042 C18.187,78.008 20.199,77.646 21.639,77.497 C21.889,77.471 23.31,77.355 23.879,78.035 C25.685,80.193 21.32,80.319 21.54,81.974 C21.607,82.475 21.879,82.718 22.235,82.912 C22.59,83.106 23.462,82.864 23.995,83.026 C24.529,83.188 25.224,83.688 25.321,84.141"></path>
                    <path d="M5.023,4.24 C10.732,31.528 15.742,44.479 26.49,69.157"></path>
                    <path d="M28.527,66.765 C27.819,65.665 25.765,65.34 24.97,65.698"></path>
                    <path d="M23.709,63.176 C21.408,61.97 19.339,61.986 17.042,63.286 C15.843,63.964 14.819,64.953 14.236,66.119"></path>
                </g>
            </g>
            <circle id="Oval" stroke-width="0.7498" fill="#FFFFFF" sketch:type="MSShapeGroup" cx="57.69" cy="44.392" r="1.972"></circle>
            <circle id="Oval" stroke-width="0.7498" fill="#FFFFFF" sketch:type="MSShapeGroup" cx="57.69" cy="44.125" r="1.972"></circle>
            <circle id="Oval" stroke-width="0.7498" fill="#FFFFFF" sketch:type="MSShapeGroup" cx="57.69" cy="44.152" r="1.972"></circle>
            <circle id="Oval" stroke-width="0.7498" fill="#FFFFFF" sketch:type="MSShapeGroup" cx="57.69" cy="43.885" r="1.972"></circle>
            <circle id="Oval" stroke-width="0.7498" fill="#FFFFFF" sketch:type="MSShapeGroup" cx="57.69" cy="43.325" r="1.972"></circle>
            <circle id="Oval" stroke-width="0.7498" fill="#FFFFFF" sketch:type="MSShapeGroup" cx="57.69" cy="43.059" r="1.972"></circle>
            <path d="M94.379,45.035 C95.055,44.962 96.017,44.929 96.114,45.969 C96.174,46.612 95.702,47.256 94.773,47.389 C88.489,48.288 75.988,49.57 57.82,49.505 C40.984,49.445 26.553,47.968 20.478,47.038 C19.821,46.937 19.194,46.543 19.268,46.07 C19.427,45.042 20.232,44.917 21.515,45.083 C28.089,45.936 41.877,47.404 57.821,47.404 C79.174,47.405 88.067,45.932 94.379,45.035 L94.379,45.035 Z" id="Shape" stroke-width="0.7498" fill="#FFFFFF" sketch:type="MSShapeGroup"></path>
            <path d="M94.379,42.301 C95.055,42.191 96.015,42.141 96.114,43.71 C96.175,44.681 95.703,45.21 94.773,45.41 C88.488,46.768 74.307,47.717 57.82,47.717 C40.984,47.717 26.552,46.728 20.478,45.323 C19.819,45.172 19.194,44.576 19.267,43.863 C19.427,42.312 20.231,42.125 21.514,42.375 C28.089,43.662 41.875,44.548 57.82,44.548 C74.261,44.548 88.067,43.654 94.379,42.301 L94.379,42.301 Z" id="Shape" stroke-width="0.7498" fill="#FFFFFF" sketch:type="MSShapeGroup"></path>
            <circle id="Oval" stroke-width="0.7498" fill="#FFFFFF" sketch:type="MSShapeGroup" cx="57.691" cy="43.218" r="1.73"></circle>
            <g transform="translate(18.000000, 26.000000)" fill="#FFFFFF" sketch:type="MSShapeGroup">
                <g>
                    <ellipse id="Oval" stroke-width="0.749770026" transform="translate(1.373204, 11.003628) rotate(-81.355339) translate(-1.373204, -11.003628) " cx="1.3732038" cy="11.0036279" rx="1.71293152" ry="0.904963822"></ellipse>
                    <ellipse id="Oval" stroke-width="0.74982604" transform="translate(2.262766, 11.544354) rotate(259.566528) translate(-2.262766, -11.544354) " cx="2.2627658" cy="11.5443544" rx="1.71305949" ry="0.90503143"></ellipse>
                    <ellipse id="Oval" stroke-width="0.749783598" transform="translate(3.475878, 10.618574) rotate(238.431911) translate(-3.475878, -10.618574) " cx="3.4758785" cy="10.6185745" rx="1.71296253" ry="0.904980203"></ellipse>
                    <ellipse id="Oval" stroke-width="0.749772234" transform="translate(4.456912, 9.392879) rotate(214.661089) translate(-4.456912, -9.392879) " cx="4.456912" cy="9.392879" rx="1.71293657" ry="0.904966487"></ellipse>
                    <ellipse id="Oval" stroke-width="0.749788543" transform="translate(4.911324, 7.769582) rotate(190.882930) translate(-4.911324, -7.769582) " cx="4.9113244" cy="7.7695824" rx="1.71297383" ry="0.904986171"></ellipse>
                    <ellipse id="Oval" stroke-width="0.749786518" transform="translate(4.782305, 6.087986) rotate(167.114466) translate(-4.782305, -6.087986) " cx="4.7823046" cy="6.0879864" rx="1.7129692" ry="0.904983728"></ellipse>
                    <ellipse id="Oval" stroke-width="0.749759817" transform="translate(4.466748, 4.278599) rotate(143.335233) translate(-4.466748, -4.278599) " cx="4.4667478" cy="4.2785988" rx="1.71390814" ry="0.9049515"></ellipse>
                    <ellipse id="Oval" stroke-width="0.749815026" transform="translate(1.258954, 2.634665) rotate(81.963889) translate(-1.258954, -2.634665) " cx="1.2589538" cy="2.6346654" rx="1.71403435" ry="0.905018136"></ellipse>
                    <path d="M1.837,10.322 C2.656,10.322 3.324,8.826 3.324,6.992 C3.324,5.158 2.656,3.662 1.837,3.662 C1.018,3.662 0.35,5.158 0.35,6.992 C0.35,8.826 1.018,10.322 1.837,10.322 L1.837,10.322 Z" id="Shape" stroke-width="0.7498"></path>
                    <ellipse id="Oval" stroke-width="0.749810126" transform="translate(1.966038, 1.985498) rotate(95.796679) translate(-1.966038, -1.985498) " cx="1.9660381" cy="1.9854975" rx="1.71402315" ry="0.905012222"></ellipse>
                    <ellipse id="Oval" stroke-width="0.749807142" transform="translate(3.477943, 2.911316) rotate(119.577165) translate(-3.477943, -2.911316) " cx="3.4779433" cy="2.9113164" rx="1.71301632" ry="0.90500862"></ellipse>
                    <path d="M3.647,16.433 C4.68,16.433 5.522,15.591 5.522,14.558 C5.522,13.525 4.68,12.683 3.647,12.683 C2.614,12.683 1.772,13.525 1.772,14.558 C1.772,15.59 2.614,16.433 3.647,16.433 L3.647,16.433 Z" id="Shape" stroke-width="0.7498"></path>
                    <path d="M6.886,9.854 C7.383,9.854 7.795,10.216 7.874,10.691 C7.898,10.689 7.924,10.688 7.95,10.688 C8.504,10.688 8.952,11.137 8.952,11.69 C8.952,11.959 8.847,12.203 8.674,12.383 C8.928,12.565 9.093,12.862 9.093,13.199 C9.093,13.752 8.644,14.201 8.091,14.201 C7.947,14.201 7.81,14.17 7.686,14.116 C7.498,14.489 7.238,14.904 6.948,15.089 C6.363,15.461 5.866,15.249 5.724,14.929 C5.582,14.609 5.717,14.031 6.221,13.829 C7.932,13.145 6.223,11.864 5.884,10.857 C5.706,10.331 6.332,9.854 6.886,9.854 L6.886,9.854 Z" id="Shape" stroke-width="0.7498"></path>
                    <circle id="Oval" stroke-width="0.7498" cx="6.048" cy="12.852" r="0.8"></circle>
                </g>
                <g transform="translate(70.000000, 0.000000)">
                    <ellipse id="Oval" stroke-width="0.749770026" transform="translate(7.994990, 11.012904) rotate(261.355339) translate(-7.994990, -11.012904) " cx="7.9949898" cy="11.0129041" rx="1.71393148" ry="0.904963822"></ellipse>
                    <ellipse id="Oval" stroke-width="0.74982604" transform="translate(7.126881, 11.539751) rotate(-79.566528) translate(-7.126881, -11.539751) " cx="7.1268814" cy="11.539751" rx="1.71305949" ry="0.90503143"></ellipse>
                    <ellipse id="Oval" stroke-width="0.749783598" transform="translate(5.896308, 10.626366) rotate(-58.431911) translate(-5.896308, -10.626366) " cx="5.8963085" cy="10.6263655" rx="1.71296253" ry="0.904980203"></ellipse>
                    <ellipse id="Oval" stroke-width="0.749833909" transform="translate(4.938577, 9.377985) rotate(-34.657831) translate(-4.938577, -9.377985) " cx="4.9385771" cy="9.3779848" rx="1.71307747" ry="0.905040928"></ellipse>
                    <ellipse id="Oval" stroke-width="0.749802703" transform="translate(4.471661, 7.777726) rotate(-10.888557) translate(-4.471661, -7.777726) " cx="4.4716612" cy="7.7777263" rx="1.71300618" ry="0.905003263"></ellipse>
                    <ellipse id="Oval" stroke-width="0.749786518" transform="translate(4.599303, 6.083277) rotate(12.885534) translate(-4.599303, -6.083277) " cx="4.5993034" cy="6.0832766" rx="1.7129692" ry="0.904983728"></ellipse>
                    <ellipse id="Oval" stroke-width="0.749835348" transform="translate(4.930358, 4.289457) rotate(36.653329) translate(-4.930358, -4.289457) " cx="4.9303578" cy="4.2894568" rx="1.7140808" ry="0.905042665"></ellipse>
                    <ellipse id="Oval" stroke-width="0.749825512" transform="translate(8.129377, 2.640438) rotate(98.041784) translate(-8.129377, -2.640438) " cx="8.1293773" cy="2.6404381" rx="1.71305828" ry="0.905030792"></ellipse>
                    <path d="M7.544,10.322 C8.363,10.322 9.031,8.826 9.031,6.992 C9.031,5.158 8.364,3.662 7.544,3.662 C6.724,3.662 6.057,5.158 6.057,6.992 C6.057,8.826 6.725,10.322 7.544,10.322 L7.544,10.322 Z" id="Shape" stroke-width="0.7498"></path>
                    <ellipse id="Oval" stroke-width="0.749802557" transform="translate(7.422778, 1.984661) rotate(84.209021) translate(-7.422778, -1.984661) " cx="7.4227775" cy="1.9846613" rx="1.71400584" ry="0.905003086"></ellipse>
                    <ellipse id="Oval" stroke-width="0.749835348" transform="translate(5.906400, 2.930874) rotate(60.430645) translate(-5.906400, -2.930874) " cx="5.9063996" cy="2.9308738" rx="1.71308076" ry="0.905042665"></ellipse>
                    <path d="M5.733,16.432 C6.766,16.432 7.608,15.59 7.608,14.557 C7.608,13.524 6.765,12.682 5.733,12.682 C4.701,12.682 3.858,13.525 3.858,14.557 C3.858,15.59 4.701,16.432 5.733,16.432 L5.733,16.432 Z" id="Shape" stroke-width="0.7498"></path>
                    <path d="M2.495,9.854 C1.998,9.854 1.586,10.216 1.507,10.691 C1.482,10.689 1.456,10.688 1.431,10.688 C0.877,10.688 0.429,11.136 0.429,11.69 C0.429,11.959 0.534,12.203 0.707,12.383 C0.453,12.565 0.288,12.862 0.288,13.198 C0.288,13.752 0.736,14.2 1.29,14.2 C1.435,14.2 1.572,14.169 1.695,14.114 C1.884,14.487 2.143,14.902 2.433,15.087 C3.018,15.46 3.516,15.247 3.658,14.927 C3.8,14.608 3.665,14.029 3.161,13.827 C1.45,13.143 3.158,11.862 3.498,10.855 C3.675,10.331 3.049,9.854 2.495,9.854 L2.495,9.854 Z" id="Shape" stroke-width="0.7498"></path>
                    <circle id="Oval" stroke-width="0.7498" cx="3.333" cy="12.851" r="0.8"></circle>
                </g>
            </g>
            <path d="M39.942,74.296 C39.942,74.296 37.808,75.912 36.709,76.882 C35.61,77.852 34.381,79.339 34.381,79.339" id="Shape" stroke-width="0.7498" sketch:type="MSShapeGroup"></path>
            <path d="M22.326,56.62 C18.503,55.824 16.772,55.869 15.604,56.335 C11.757,57.873 12.648,58.776 10.881,60.693 C10.285,61.339 9.265,61.599 8.165,61.986 C5.446,62.945 1.524,62.319 0.988,67.353 C0.664,70.392 1.052,73.754 3.574,75.112 C6.095,76.469 9.652,75.629 10.946,75.241 C11.288,75.138 11.639,75.04 12.012,74.954 C13.046,74.718 14.243,74.58 15.86,74.723 C18.058,74.917 19.545,75.499 20.386,75.823 C21.226,76.146 21.938,76.534 21.938,76.534 C21.938,76.534 21.68,77.31 21.873,78.15 C22.588,81.251 26.315,81.985 29.195,81.557 C31.347,81.238 32.351,80.199 34.223,79.379 C35.258,78.926 37.262,78.15 38.426,78.086 C39.59,78.021 41.982,77.763 43.341,78.474 C44.698,79.185 46.897,81.19 47.867,81.901 C48.837,82.612 51.422,83.905 53.556,84.229 C55.69,84.553 59.827,84.812 61.509,84.553 C63.915,84.183 65.186,83.546 66.111,82.72 C67.379,81.588 67.996,80.1 69.997,78.46 C71.239,77.441 72.772,76.97 75.736,77.249 C79.216,77.575 82.064,80.74 86.146,80.74 C90.528,80.74 89.737,80.015 90.672,77.055 C91.069,75.797 92.171,75.047 93.5,74.638 C95.344,74.072 97.626,74.162 99.078,74.468 C101.535,74.986 103.282,75.955 106.192,75.697 C109.101,75.438 111.365,74.598 112.399,73.628 C113.433,72.658 114.274,71.236 115.89,70.848 C117.07,70.565 119.872,70.78 119.511,69.413 C118.885,67.038 114.587,64.81 112.399,64.318 C109.813,63.736 109.295,63.93 107.291,63.412 C105.287,62.895 101.989,61.408 101.989,61.408 C101.989,61.408 103.605,60.309 102.829,59.081 C100.933,56.077 96.095,56.11 92.871,56.042 L86.47,56.494 C86.47,56.494 38.307,56.546 27.819,56.601 C25.986,56.609 24.158,56.62 22.326,56.62 L22.326,56.62 Z" id="Shape" stroke-width="0.7498" fill="#FFFFFF" sketch:type="MSShapeGroup"></path>
            <path d="M22.923,49.425 C22.897,49.719 22.659,52.205 21.81,54.876 C20.904,57.721 18.965,61.342 18.965,61.342 C18.253,62.03 17.177,62.792 16.516,63.743 C15.479,65.234 15.13,67.048 16.273,68.678 C17.252,70.076 19.377,70.717 21.814,70.296 C22.895,70.109 23.918,70.198 26.013,72.851 C26.983,74.079 28.664,74.726 29.957,74.984 C32.816,75.556 34.592,75.41 36.2,75.078 C37.968,74.713 39.533,74.122 42.114,74.015 C43.666,73.951 44.894,73.82 46.64,74.92 C48.386,76.019 49.162,77.765 52.459,77.895 C55.757,78.024 57.826,78.541 60.542,77.895 C62.192,77.502 64.334,77.287 65.763,76.472 C68.276,75.04 67.631,73.453 70.047,72.916 C72.068,72.466 72.829,73.757 75.739,74.274 C78.649,74.792 81.752,75.114 83.368,74.727 C88.223,73.562 88.033,70.866 90.157,70.653 C91.45,70.524 93.067,70.524 94.166,70.524 C96.263,70.524 98.261,70.075 99.341,68.721 C101.613,65.873 98.012,62.587 95.653,61.73 C94.942,61.472 93.972,61.148 93.972,61.148 C92.847,56.887 92.714,54.038 92.226,49.768 C92.226,49.768 24.339,49.341 22.947,49.393 C22.917,49.395 22.925,49.392 22.923,49.425 L22.923,49.425 Z" id="Shape" stroke-width="0.7498" fill="#FFFFFF" sketch:type="MSShapeGroup"></path>
            <path d="M94.153,47.121 C94.829,47.011 95.79,46.962 95.888,48.53 C95.949,49.501 95.477,50.029 94.547,50.229 C88.262,51.588 74.081,52.536 57.594,52.536 C40.759,52.536 26.326,51.547 20.253,50.142 C19.594,49.992 18.968,49.395 19.042,48.683 C19.202,47.132 20.006,46.945 21.289,47.194 C27.864,48.482 41.65,49.367 57.594,49.367 C74.035,49.367 87.842,48.474 94.153,47.121 L94.153,47.121 Z" id="Shape" stroke-width="0.7498" fill="#FFFFFF" sketch:type="MSShapeGroup"></path>
            <path d="M8.194,71.192 C6.754,69.527 6.602,65.445 8.032,64.015" id="Shape" stroke-width="0.7498" sketch:type="MSShapeGroup"></path>
            <path d="M6.06,62.625 C6.73,63.501 8.277,64.352 9.415,64.109 C11.096,63.752 11.092,62.048 10.926,60.717" id="Shape" stroke-width="0.7498" sketch:type="MSShapeGroup"></path>
            <path d="M20.803,70.44 C16.554,71.539 14.244,73.445 11.557,75.072" id="Shape" stroke-width="0.7498" sketch:type="MSShapeGroup"></path>
            <path d="M25.006,71.838 C25.006,71.838 25.2,73.196 24.295,73.713 C23.389,74.23 21.967,76.622 21.967,76.622" id="Shape" stroke-width="0.7498" sketch:type="MSShapeGroup"></path>
            <path d="M46.731,75.266 C46.731,75.266 46.343,76.752 46.213,77.852 C46.083,78.952 46.165,80.439 46.165,80.439" id="Shape" stroke-width="0.7498" sketch:type="MSShapeGroup"></path>
            <path d="M19.057,61.105 C19.057,61.105 15.953,61.493 14.207,63.433 C12.461,65.372 11.944,67.571 12.332,68.67 C12.72,69.769 13.366,70.481 14.724,70.933 C16.082,71.386 17.634,71.467 17.634,71.467" id="Shape" stroke-width="0.7498" sketch:type="MSShapeGroup"></path>
            <path d="M99.443,64.661 C99.443,64.661 99.363,64.015 99.944,63.304 C100.526,62.593 102.143,61.251 102.143,61.38" id="Shape" stroke-width="0.7498" sketch:type="MSShapeGroup"></path>
            <path d="M99.783,65.421 C100.453,66.272 103.221,66.824 104.082,66.537 C104.47,66.408 105.052,67.572 105.052,68.153 C105.052,68.735 104.793,70.352 102.207,70.804 C99.584,71.262 95.151,71.167 92.476,70.577 C95.163,71.845 97.219,72.883 99.621,74.619" id="Shape" stroke-width="0.7498" sketch:type="MSShapeGroup"></path>
            <path d="M91.135,76.122 C90.403,75.523 88.973,74.325 88.177,72.744 C87.965,72.324 88.048,72.226 88.048,72.226" id="Shape" stroke-width="0.7498" sketch:type="MSShapeGroup"></path>
            <path d="M81.646,51.988 C81.646,51.988 81.581,57.42 82.357,61.428 C83.133,65.437 83.844,68.218 84.426,69.187 C85.008,70.157 87.465,72.517 87.465,72.517" id="Shape" stroke-width="0.7498" sketch:type="MSShapeGroup"></path>
            <path d="M70.913,52.376 C70.913,52.376 71.107,57.095 71.624,60.652 C72.141,64.208 72.594,67.764 73.24,69.575 C73.886,71.386 76.053,74.263 76.053,74.263" id="Shape" stroke-width="0.7498" sketch:type="MSShapeGroup"></path>
            <path d="M75.697,52.247 C75.697,52.247 75.956,59.101 76.215,61.106 C76.474,63.11 76.732,64.532 76.732,64.532" id="Shape" stroke-width="0.7498" sketch:type="MSShapeGroup"></path>
            <path d="M86.561,51.6 C86.561,51.6 86.69,56.449 87.078,58.777 C87.466,61.105 87.692,63.513 87.692,63.513" id="Shape" stroke-width="0.7498" sketch:type="MSShapeGroup"></path>
            <path d="M60.503,52.571 C60.503,52.571 60.115,56.386 60.374,59.813 C60.633,63.24 60.762,68.025 61.085,70.546 C61.408,73.067 62.378,77.529 62.378,77.529" id="Shape" stroke-width="0.7498" sketch:type="MSShapeGroup"></path>
            <path d="M53.067,52.635 L53.067,60.265 C53.067,63.175 53.132,65.567 52.356,69.835 C51.581,74.102 50.74,77.594 50.74,77.594" id="Shape" stroke-width="0.7498" sketch:type="MSShapeGroup"></path>
            <path d="M65.158,52.635 C65.158,52.635 65.223,56.062 65.223,58.39 C65.223,60.718 65.691,65.227 65.691,65.227" id="Shape" stroke-width="0.7498" sketch:type="MSShapeGroup"></path>
            <path d="M49.317,52.571 C49.12,57.165 49.214,61.444 48.477,66.02" id="Shape" stroke-width="0.7498" sketch:type="MSShapeGroup"></path>
            <path d="M43.563,52.377 C43.563,52.377 43.434,57.808 42.852,60.847 C42.27,63.886 41.3,68.671 40.524,70.546 C39.748,72.421 38.455,74.555 38.455,74.555" id="Shape" stroke-width="0.7498" sketch:type="MSShapeGroup"></path>
            <path d="M38.971,52.183 C38.971,52.183 38.325,57.614 38.066,59.554 C37.808,61.494 36.999,65.244 36.999,65.244" id="Shape" stroke-width="0.7498" sketch:type="MSShapeGroup"></path>
            <path d="M32.57,51.73 C32.57,51.73 31.794,56.127 31.341,59.166 C30.888,62.205 30.177,65.05 29.854,66.343 C29.531,67.636 27.785,69.64 27.785,69.64" id="Shape" stroke-width="0.7498" sketch:type="MSShapeGroup"></path>
            <path d="M29.208,51.666 C29.208,51.666 28.367,55.287 27.656,58.132 C26.945,60.977 26.039,63.434 25.393,64.792 C24.747,66.15 23.906,67.313 23.906,67.313" id="Shape" stroke-width="0.7498" sketch:type="MSShapeGroup"></path>
            <path d="M20.107,59.23 L21.966,63.11 L27.009,60.136 C27.009,60.136 27.85,61.493 28.755,61.623 C29.66,61.753 30.889,61.17 30.889,61.17 L33.217,64.08 L37.614,61.752 C37.614,61.752 38.002,62.592 39.36,62.851 C40.718,63.11 42.464,62.398 42.464,62.398 L44.598,66.536 L48.994,62.786 C48.994,62.786 49.382,63.368 50.352,63.432 C51.322,63.496 53.003,62.786 53.003,62.786 L56.495,66.601 L60.569,62.333 C60.569,62.333 61.344,63.174 62.056,63.303 C62.768,63.432 63.543,63.303 64.319,63.044 C65.095,62.786 65.354,62.074 65.354,62.074 L69.169,65.437 L71.95,62.333 C71.95,62.333 72.596,62.463 74.019,62.398 C75.442,62.333 76.282,60.976 76.282,60.976 L79.903,64.338 L82.231,60.459 C82.231,60.459 83.588,61.558 84.752,61.429 C85.916,61.3 87.338,59.942 87.338,59.942 L90.894,62.981 L93.432,59.279" id="Shape" stroke-width="0.7498" sketch:type="MSShapeGroup"></path>
            <path d="M94.239,61.236 L91.604,66.021 L87.724,63.5 C85.736,64.457 84.923,64.278 82.875,63.823 L80.612,68.156 L76.603,64.47 C76.603,64.47 75.957,64.858 74.792,65.181 C73.628,65.504 72.465,64.857 72.465,64.857 L69.749,68.866 L65.675,65.116 C65.675,65.116 64.641,65.892 63.865,65.957 C63.089,66.021 60.826,65.374 60.826,65.374 L56.3,69.836 L52.744,66.344 C52.744,66.344 52.356,66.506 51.128,66.571 C49.9,66.636 48.574,65.827 48.574,65.827 L44.404,69.642 L41.688,66.247 C41.688,66.247 40.298,66.474 39.425,66.376 C38.552,66.279 37.032,65.147 37.032,65.147 L32.377,68.412 L30.203,64.419 C30.203,64.419 28.95,64.985 27.786,64.597 C26.622,64.209 25.911,63.498 25.911,63.498 L21.061,66.149 L18.668,61.688" id="Shape" stroke-width="0.7498" sketch:type="MSShapeGroup"></path>
            <path d="M36.774,71.646 C37.971,70.25 38.488,68.386 38.778,66.183" id="Shape" stroke-width="0.7498" sketch:type="MSShapeGroup"></path>
            <path d="M18.217,65.762 C18.956,64.699 19.23,64.423 19.316,63.111" id="Shape" stroke-width="0.7498" sketch:type="MSShapeGroup"></path>
            <path d="M49.318,72.616 C49.318,72.616 49.641,70.741 49.771,69.512 C49.9,68.283 50.288,66.473 50.288,66.473" id="Shape" stroke-width="0.7498" sketch:type="MSShapeGroup"></path>
            <path d="M65.095,72.939 C65.095,72.939 64.255,71.905 63.866,70.482 C63.477,69.059 63.22,65.956 63.22,65.956" id="Shape" stroke-width="0.7498" sketch:type="MSShapeGroup"></path>
            <path d="M23.843,70.353 C23.843,70.353 25.136,69.836 26.364,68.219 C27.593,66.603 28.518,64.768 28.518,64.768" id="Shape" stroke-width="0.7498" sketch:type="MSShapeGroup"></path>
            <path d="M74.728,65.245 C74.728,65.245 74.922,67.056 75.439,68.025 C75.957,68.995 77.12,70.805 77.12,70.805" id="Shape" stroke-width="0.7498" sketch:type="MSShapeGroup"></path>
            <path d="M93.172,63.58 C93.172,63.58 93.349,64.793 94.32,65.633 C95.29,66.474 96.906,66.862 96.906,66.862" id="Shape" stroke-width="0.7498" sketch:type="MSShapeGroup"></path>
            <path d="M99.914,63.241 C99.914,63.241 100.043,62.918 98.88,62.304 C97.715,61.689 97.554,61.593 96.52,61.269 C95.485,60.946 93.95,60.768 93.95,60.768" id="Shape" stroke-width="0.7498" sketch:type="MSShapeGroup"></path>
            <path d="M104.311,66.571 C104.311,66.571 104.279,66.377 105.152,65.892 C106.025,65.407 106.995,64.987 107.9,64.599 C108.805,64.211 110.293,63.953 110.293,63.953" id="Shape" stroke-width="0.7498" sketch:type="MSShapeGroup"></path>
            <path d="M72.855,73.425 C72.855,73.425 75.441,76.27 76.282,76.852 C77.123,77.434 78.028,77.887 78.028,77.887" id="Shape" stroke-width="0.7498" sketch:type="MSShapeGroup"></path>
            <path d="M67.424,75.106 C67.424,75.106 67.941,75.947 68.006,77.11 C68.07,78.274 68.006,80.537 68.006,80.537" id="Shape" stroke-width="0.7498" sketch:type="MSShapeGroup"></path>
            <circle id="Oval" stroke-width="0.7498" fill="#FFFFFF" sketch:type="MSShapeGroup" cx="20.741" cy="67.411" r="1.423"></circle>
            <circle id="Oval" stroke-width="0.7498" fill="#FFFFFF" sketch:type="MSShapeGroup" cx="32.121" cy="69.61" r="1.423"></circle>
            <circle id="Oval" stroke-width="0.7498" fill="#FFFFFF" sketch:type="MSShapeGroup" cx="44.406" cy="71.032" r="1.423"></circle>
            <circle id="Oval" stroke-width="0.7498" fill="#FFFFFF" sketch:type="MSShapeGroup" cx="56.303" cy="70.968" r="1.423"></circle>
            <circle id="Oval" stroke-width="0.7498" fill="#FFFFFF" sketch:type="MSShapeGroup" cx="69.881" cy="69.933" r="1.422"></circle>
            <circle id="Oval" stroke-width="0.7498" fill="#FFFFFF" sketch:type="MSShapeGroup" cx="80.68" cy="69.157" r="1.423"></circle>
            <circle id="Oval" stroke-width="0.7498" fill="#FFFFFF" sketch:type="MSShapeGroup" cx="92.124" cy="67.282" r="1.423"></circle>
            <path d="M87.598,68.575 C87.598,68.575 86.951,68.317 86.369,67.088 C85.787,65.859 85.318,64.275 85.318,64.275" id="Shape" stroke-width="0.7498" sketch:type="MSShapeGroup"></path>
            <path d="M52.918,175.298 C56.951,177.497 58.072,182.308 55.401,186.156 C55.282,186.328 55.156,186.495 55.026,186.657 C50.992,184.458 49.871,179.647 52.543,175.799 C52.663,175.627 52.788,175.46 52.918,175.298 L52.918,175.298 L52.918,175.298 Z M62.462,175.298 C58.429,177.497 57.308,182.308 59.979,186.156 C60.098,186.328 60.224,186.495 60.354,186.657 C64.387,184.458 65.508,179.647 62.837,175.799 C62.718,175.627 62.592,175.46 62.462,175.298 L62.462,175.298 Z" id="Shape" stroke-width="0.7498" fill="#FFFFFF" sketch:type="MSShapeGroup"></path>
            <g transform="translate(44.000000, 182.000000)" id="Shape" stroke-width="0.7498" fill="#FFFFFF" sketch:type="MSShapeGroup">
                <g>
                    <path d="M3.522,0.868 C5.45,0.645 7.219,1.524 7.474,2.831 C7.728,4.138 6.37,5.379 4.442,5.603 C2.514,5.826 0.745,4.947 0.491,3.64 C0.236,2.333 1.594,1.092 3.522,0.868 L3.522,0.868 Z"></path>
                    <path d="M6.917,3.586 C9.089,3.267 11.083,4.294 11.369,5.88 C11.656,7.466 10.126,9.011 7.954,9.33 C5.781,9.649 3.788,8.622 3.502,7.035 C3.215,5.449 4.744,3.905 6.917,3.586 L6.917,3.586 Z"></path>
                </g>
                <g transform="translate(15.000000, 0.000000)">
                    <path d="M8.859,0.868 C6.93,0.645 5.161,1.524 4.907,2.831 C4.653,4.138 6.011,5.379 7.938,5.603 C9.867,5.826 11.636,4.947 11.89,3.64 C12.144,2.333 10.787,1.092 8.859,0.868 L8.859,0.868 Z"></path>
                    <path d="M5.464,3.586 C3.291,3.267 1.298,4.294 1.012,5.88 C0.726,7.466 2.255,9.011 4.428,9.33 C6.6,9.649 8.594,8.622 8.88,7.035 C9.166,5.449 7.637,3.905 5.464,3.586 L5.464,3.586 Z"></path>
                </g>
            </g>
            <path d="M57.691,193.619 C59.935,193.619 61.764,192.138 61.764,190.321 C61.764,188.504 59.934,187.023 57.691,187.023 C55.448,187.023 53.617,188.504 53.617,190.321 C53.617,192.138 55.447,193.619 57.691,193.619 L57.691,193.619 Z" id="Shape" stroke-width="0.7498" fill="#FFFFFF" sketch:type="MSShapeGroup"></path>
            <path d="M47.42,176.418 C52.767,176.568 56.472,180.966 55.734,186.369 C55.701,186.611 55.66,186.85 55.61,187.088 C50.263,186.938 46.558,182.54 47.295,177.137 C47.329,176.895 47.371,176.655 47.42,176.418 L47.42,176.418 L47.42,176.418 Z M67.96,176.418 C62.613,176.568 58.908,180.966 59.646,186.369 C59.679,186.611 59.721,186.85 59.77,187.088 C65.117,186.938 68.822,182.54 68.085,177.137 C68.052,176.895 68.01,176.655 67.96,176.418 L67.96,176.418 Z" id="Shape" stroke-width="0.7498" fill="#FFFFFF" sketch:type="MSShapeGroup"></path>
            <path d="M53.649,183.257 C53.649,180.537 55.707,176.869 57.69,175.48 C59.931,177.063 61.731,180.537 61.731,183.257 C61.731,189.23 53.649,189.059 53.649,183.257 L53.649,183.257 Z" id="Shape" stroke-width="0.7498" fill="#FFFFFF" sketch:type="MSShapeGroup"></path>
        </g>
    </g>
</svg>