<?xml version="1.0" encoding="UTF-8" standalone="no"?>
<svg width="108px" height="188px" viewBox="0 0 108 188" version="1.1" xmlns="http://www.w3.org/2000/svg" xmlns:xlink="http://www.w3.org/1999/xlink" xmlns:sketch="http://www.bohemiancoding.com/sketch/ns">
    <!-- Generator: Sketch 3.3.1 (12002) - http://www.bohemiancoding.com/sketch -->
    <title>Group</title>
    <desc>Created with Sketch.</desc>
    <defs></defs>
    <g id="Page-1" stroke="none" stroke-width="1" fill="none" fill-rule="evenodd" sketch:type="MSPage">
        <g id="Group" sketch:type="MSLayerGroup">
            <g transform="translate(6.000000, 13.000000)" sketch:type="MSShapeGroup" stroke="#000000">
                <g>
                    <path d="M5.133,6.685 C6.653,3.664 9.942,1.83 10.844,2.228 C13.781,3.526 13.223,5.831 16.161,7.055 C17.791,7.734 20.183,7.992 22.141,6.353 C27.758,1.654 26.68,13.906 25.64,16.317 C24.787,18.294 22.878,20.037 20.63,21.268 C10.161,27.004 -0.779,18.431 5.133,6.685 L5.133,6.685 Z" id="Shape" stroke-width="0.7498" fill="#FFFFFF"></path>
                    <path d="M9.776,29.454 C5.032,28.332 1.216,24.547 3.401,21.204 C4.219,19.952 6.219,20.815 7.807,20.661 C10.172,20.433 10.759,17.251 8.698,15.758 C6.678,14.294 2.798,13.711 1.464,11.157 C0.485,9.284 0.002,5.922 2.785,2.901 C5.085,0.405 8.789,-0.198 11.808,2.547 C14.558,5.047 13.902,8.515 16.277,10.641 C18.652,12.766 20.118,12.415 20.902,9.453 C24.108,-2.661 35.867,14.464 30.972,24.299 C28.559,29.146 22.438,32.449 9.776,29.454 L9.776,29.454 Z" id="Shape" stroke-width="0.7498" fill="#FFFFFF"></path>
                    <path d="M8.886,15.898 C9.185,14.169 9.948,12.679 11.197,11.609 C12.403,10.577 13.924,10.051 15.604,9.989" id="Shape" stroke-width="0.7498"></path>
                    <path d="M20.345,10.892 C22.967,11.927 25.637,13.822 27.892,16.443 C33.126,22.527 34.101,30.256 30.102,33.683 C26.102,37.109 18.627,34.945 13.407,28.849 C11.074,26.125 9.587,23.078 9.011,20.234" id="Shape" stroke-width="0.7498"></path>
                    <ellipse id="Oval" stroke-width="0.749792971" fill="#FFFFFF" transform="translate(20.629837, 22.644341) rotate(223.196802) translate(-20.629837, -22.644341) " cx="20.629837" cy="22.644341" rx="9.15391418" ry="6.00694368"></ellipse>
                    <ellipse id="Oval" stroke-width="0.749816293" fill="#FFFFFF" transform="translate(21.976747, 23.098040) rotate(216.976466) translate(-21.976747, -23.098040) " cx="21.9767466" cy="23.0980398" rx="5.79712597" ry="3.80408266"></ellipse>
                </g>
                <g transform="translate(59.000000, 0.000000)">
                    <path d="M28.125,6.685 C26.605,3.664 23.316,1.83 22.414,2.228 C19.477,3.526 20.035,5.831 17.097,7.055 C15.468,7.734 13.075,7.992 11.117,6.353 C5.5,1.654 6.578,13.906 7.618,16.317 C8.471,18.294 10.38,20.037 12.628,21.268 C23.097,27.004 34.038,18.431 28.125,6.685 L28.125,6.685 Z" id="Shape" stroke-width="0.7498" fill="#FFFFFF"></path>
                    <path d="M23.482,29.454 C28.226,28.332 32.042,24.547 29.857,21.204 C29.039,19.952 27.039,20.815 25.451,20.661 C23.086,20.433 22.499,17.251 24.56,15.758 C26.58,14.294 30.46,13.711 31.794,11.157 C32.773,9.284 33.256,5.922 30.473,2.901 C28.173,0.405 24.469,-0.198 21.45,2.547 C18.7,5.047 19.356,8.515 16.981,10.641 C14.606,12.766 13.14,12.415 12.356,9.453 C9.15,-2.661 -2.609,14.464 2.286,24.299 C4.699,29.146 10.82,32.449 23.482,29.454 L23.482,29.454 Z" id="Shape" stroke-width="0.7498" fill="#FFFFFF"></path>
                    <path d="M24.372,15.898 C24.074,14.169 23.31,12.679 22.061,11.609 C20.855,10.577 19.334,10.051 17.654,9.989" id="Shape" stroke-width="0.7498"></path>
                    <path d="M12.913,10.892 C10.291,11.927 7.621,13.822 5.366,16.443 C0.133,22.527 -0.843,30.256 3.157,33.683 C7.157,37.109 14.631,34.945 19.852,28.849 C22.185,26.125 23.672,23.078 24.248,20.234" id="Shape" stroke-width="0.7498"></path>
                    <ellipse id="Oval" stroke-width="0.749792971" fill="#FFFFFF" transform="translate(12.600419, 22.666058) rotate(-43.196802) translate(-12.600419, -22.666058) " cx="12.600419" cy="22.666058" rx="9.15391418" ry="6.00694368"></ellipse>
                    <ellipse id="Oval" stroke-width="0.749816293" fill="#FFFFFF" transform="translate(11.276764, 23.122175) rotate(-36.976466) translate(-11.276764, -23.122175) " cx="11.2767639" cy="23.1221747" rx="5.79712597" ry="3.80408266"></ellipse>
                </g>
            </g>
            <g transform="translate(3.000000, 121.000000)" id="Shape" stroke="#000000" stroke-width="0.7498" sketch:type="MSShapeGroup">
                <path d="M0.478,65.396 C4.467,60.896 0.3,58.49 1.853,55.271 C4.405,54.556 5.99,51.261 7.291,47.208 C3.21,41.121 4.556,38.126 8.228,36.458 C10.037,35.125 11.336,33.312 11.728,30.645 C7.439,31.224 7.725,26.962 10.603,19.957 C16.657,7.693 32.51,0.423 61.308,0.951 C78.167,1.261 92.451,12.276 94.855,29.3 C93.853,27.621 92.752,26.78 91.417,26.769 C91.857,31.4 93.707,35.076 96.73,37.957 C99.312,41.186 99.461,43.936 96.543,46.083 C96.471,48.245 96.906,50.379 98.418,52.458 C99.785,53.43 101.566,53.668 100.668,58.645 C101.319,60.576 102.352,62.403 103.918,64.083 C101.416,66.959 97.763,65.926 96.23,62.02 C94.687,59.895 92.669,58.29 90.292,57.082 C83.242,56.209 80.299,51.561 79.417,45.019 C77.832,42.479 77.23,38.956 76.979,35.081 C75.797,35.475 74.682,36.604 73.666,38.831 C73.099,28.043 72.362,6.078 50.704,8.649 C29.246,11.196 25.68,25.342 28.666,43.019 C27.243,41.772 25.881,41.078 24.541,40.581 C24.485,42.838 24.513,45.116 24.791,47.456 C24.944,52.761 21.92,55.726 16.072,56.612 C13.601,57.562 11.292,58.86 9.322,60.893 C8.134,64.235 4.656,66.179 0.478,65.396 L0.478,65.396 Z" fill="#FFFFFF"></path>
                <path d="M96.344,37.536 C96.344,37.536 91.594,35.239 89.844,34.052 C88.094,32.864 86.583,30.612 86.969,29.239 C87.739,26.511 89.869,26.512 91.782,26.801"></path>
                <path d="M99.016,52.817 C98.063,52.653 95.491,52.03 94.449,51.185 C93.23,50.197 92.412,48.882 93.08,47.567 C93.571,46.6 94.827,46.097 96.719,46.051"></path>
                <path d="M100.696,58.622 C99.678,60.096 99.855,61.804 100.724,62.729 C101.341,63.386 102.371,63.671 103.876,64.005"></path>
                <path d="M88.157,56.661 C90.984,57.631 94.091,56.038 95.809,57.831 C97.054,59.132 96.935,60.54 96.188,62.068"></path>
                <path d="M76.845,35.162 C77.46,34.668 78.396,34.7 79.109,35.05 C80.604,35.784 81.549,37.649 82.371,39.453 C84.693,44.559 86.688,48.866 93.096,49.521"></path>
                <path d="M88.994,48.256 C90.587,48.028 91.541,46.988 92.008,45.686 C92.27,44.957 92.334,43.737 92.274,42.432 C92.131,39.352 91.705,37.812 90.658,35.975 C90.17,35.119 87.829,31.868 88.579,33.069 C89.523,34.581 89.885,40.216 85.188,38.772 C83.779,38.338 81.875,35.834 79.75,30.959 C77.625,26.084 75.125,17.458 72.5,14.958 C69.875,12.459 65.375,6.958 58.5,6.083 C51.625,5.208 40.125,7.583 35.75,10.333 C31.375,13.083 30,14.209 27.875,16.959 C25.75,19.708 24.25,23.584 23.875,26.459"></path>
                <path d="M90.438,42.021 C89.795,42.78 88.411,42.942 87.198,42.661 C83.76,41.865 82.073,38.431 80.188,35.708 L80.376,31.895"></path>
                <path d="M79.431,45.091 C79.241,42.238 79.7,39.682 80.814,36.552"></path>
                <path d="M79.204,20.724 C82.651,24.419 84.18,28.742 85.376,33.522 C80.853,29.583 80.542,21.964 77.313,16.772 C75.875,14.459 71.313,8.959 66.813,6.834 C63.328,5.188 58.626,3.952 53.699,4.065 C25.606,4.712 20.916,17.252 16.812,41.395 C16.583,42.741 17.244,43.478 17.923,43.85 C18.893,44.381 20.369,44.207 21.812,44.207 C23.949,44.207 23.999,44.515 24.679,46.16"></path>
                <path d="M16.046,56.652 C11.306,56.149 10.722,55.632 9.312,60.941"></path>
                <path d="M2.031,55.395 C8.426,58.611 10.078,51.638 7.234,47.106"></path>
                <path d="M12.218,50.332 C16.99,49.967 18.437,46.382 17.968,43.832 C17.92,43.982 17.867,44.125 17.811,44.258 C17.304,45.452 16.251,46.515 15.397,46.515 C10.67,46.515 13.623,38.856 13.624,37.489"></path>
                <path d="M7.811,36.699 C7.811,36.699 8.288,36.941 9.28,37.269 C12.395,38.299 14.365,37.303 15.337,35.835 C16.583,33.954 15.975,31.249 14.357,30.396 C13.549,29.969 12.671,30.464 11.416,30.699"></path>
                <path d="M24.749,40.66 C20.1,38.573 17.976,39.963 15.249,42.707 C15.249,42.707 16.374,38.207 16.562,35.894 C16.757,33.49 16.896,31.242 17.132,29.069 C17.625,24.525 18.54,20.31 21.264,15.687 C23.132,12.517 25.803,9.847 30.038,7.491 C32.66,6.033 35.72,5.117 40.138,4.13 C62.829,-0.938 83.834,4.436 87,29.768"></path>
                <path d="M37.563,2.893 C37.563,2.893 34.688,3.706 31.25,5.331 C19.656,10.81 15.195,20.157 15.906,33.206"></path>
            </g>
            <path d="M7.499,117.802 C-1.833,116.594 -1.471,102.541 6.906,100.021 C7.64,94.416 88.669,88.354 90.406,96.522 C92.809,97.507 94.628,98.786 96.031,100.272 C108.205,105.324 101.838,123.658 85.031,118.96 C86.81,124.301 80.512,125.358 76.406,120.273 C70.499,122.909 71.054,110.619 50.08,116.161 C42.107,118.268 30.084,129.706 26.656,124.148 C25.177,124.919 20.885,126.283 20.156,124.398 C18.323,125.314 11.77,123.825 16.468,120.773 C15.57,121.588 6.794,120.265 7.499,117.802 L7.499,117.802 Z" id="Shape" stroke="#000000" stroke-width="0.7498" fill="#FFFFFF" sketch:type="MSShapeGroup"></path>
            <path d="M37.453,116.271 C37.735,120.881 30.909,124.192 26.999,124.603" id="Shape" stroke="#000000" stroke-width="0.7498" sketch:type="MSShapeGroup"></path>
            <path d="M6.828,100.021 C7.879,99.758 9.361,99.569 10.922,99.493 C15.93,99.25 18.534,99.235 22.641,101.834 C24.387,102.938 17.945,102.014 15.776,102.829 C13.504,103.682 11.734,105.308 11.516,108.146 C11.202,112.234 14.521,114.856 17.074,115.988 C22.087,118.21 29.059,115.395 34.141,111.646 C34.141,111.646 32.453,115.209 31.078,116.834 C29.703,118.459 27.766,121.022 25.828,122.209 C23.89,123.396 19.953,124.522 19.953,124.522" id="Shape" stroke="#000000" stroke-width="0.7498" sketch:type="MSShapeGroup"></path>
            <path d="M32.266,108.896 C30.574,111.628 27.739,112.942 24.604,111.965 C20.871,110.802 20.453,108.691 21.316,107.326 C22.402,105.61 25.776,105.097 27.828,104.02 C28.311,103.766 26.776,103.612 26.175,103.499 C22.884,102.881 18.338,104.058 16.612,106.638 C15.123,108.865 16.063,111.996 20.632,113.629 C23.499,114.652 25.959,114.436 28.289,113.599 C30.896,112.663 33.342,110.952 36.016,109.333 C36.248,110.457 36.15,112.346 35.806,114.188 C34.892,119.082 30.887,122.313 26.492,124.223" id="Shape" stroke="#000000" stroke-width="0.7498" sketch:type="MSShapeGroup"></path>
            <path d="M6.578,110.521 C9.193,115.524 12.236,115.855 17.377,116.146 C18.226,116.194 18.842,119.606 24.516,119.584" id="Shape" stroke="#000000" stroke-width="0.7498" sketch:type="MSShapeGroup"></path>
            <path d="M6.343,117.567 C6.343,117.567 8.077,118.036 9.328,117.848 C10.578,117.66 12.735,116.739 13.797,116.426 C15.181,116.019 19.111,116.052 18.64,118.364 C18.367,119.708 16.202,120.927 16.202,120.927" id="Shape" stroke="#000000" stroke-width="0.7498" sketch:type="MSShapeGroup"></path>
            <path d="M80.508,123.271 C80.508,123.271 78.703,122.614 77.953,120.739 C77.203,118.865 76.828,116.427 76.14,114.801 C73.673,108.973 67.961,107.53 62.452,106.051 C64.98,108.896 68.709,109.99 71.702,113.614 C72.89,115.052 74.265,117.177 74.64,117.677 C75.015,118.177 76.39,120.303 76.39,120.303 C76.39,120.303 73.952,117.302 72.702,116.427 C70.334,114.771 66.308,113.325 63.311,113.365" id="Shape" stroke="#000000" stroke-width="0.7498" sketch:type="MSShapeGroup"></path>
            <path d="M76.203,99.521 C79.096,98.917 83.328,98.245 86.535,98.221 C89.533,98.2 92.447,98.721 96.016,100.271 C96.016,100.271 94.078,98.037 90.406,96.552 C87.251,95.277 80.735,95.406 77.265,95.302" id="Shape" stroke="#000000" stroke-width="0.7498" sketch:type="MSShapeGroup"></path>
            <path d="M87.37,114.997 C87.584,114.912 87.793,114.82 87.997,114.723 C89.139,114.175 90.318,113.273 91.071,112.148 C92.926,109.378 91.731,106.078 89.782,103.65 C88.404,101.933 86.759,100.901 84.934,100.295 C81.293,99.085 77.046,99.44 73.328,100.115 C73.102,100.156 73.707,100.218 74.671,100.297 C76.928,100.483 79.692,100.531 82.308,101.568 C85.542,102.85 88.319,105.48 86.872,109.781 C85.269,114.545 79.002,113.86 75.203,112.927" id="Shape" stroke="#000000" stroke-width="0.7498" sketch:type="MSShapeGroup"></path>
            <path d="M76.297,115.224 C78.297,115.868 81.135,116.174 83.841,115.855" id="Shape" stroke="#000000" stroke-width="0.7498" sketch:type="MSShapeGroup"></path>
            <path d="M69.703,105.302 C70.35,107.458 71.21,108.499 73.388,109.117 C75.653,109.759 78.27,109.283 78.227,106.582 C78.164,102.614 74.029,102.883 71.328,103.177 C68.306,103.506 75.152,101.494 78.514,103.021 C81.443,104.35 82.931,107.583 80.468,109.375 C79.473,110.1 77.904,110.351 76.264,110.329 C70.733,110.256 69.082,105.346 69.703,105.302 L69.703,105.302 Z" id="Shape" stroke="#000000" stroke-width="0.7498" fill="#FFFFFF" sketch:type="MSShapeGroup"></path>
            <path d="M100.629,114.634 C100.004,115.509 98.579,117.552 95.703,117.614 C92.828,117.677 90.328,116.489 89.14,115.926 C87.952,115.363 86.327,114.488 85.202,114.738 C84.077,114.988 83.452,116.301 83.889,117.113 C84.326,117.925 84.936,118.82 85.182,119.367" id="Shape" stroke="#000000" stroke-width="0.7498" sketch:type="MSShapeGroup"></path>
            <path d="M53.17,156.729 C55.854,156.295 57.991,153.628 59.606,150.28 C61.632,146.079 62.622,141.548 63.406,136.914 C63.927,133.838 64.822,126.538 66.862,119.794 C69.408,111.376 71.118,106.754 74.741,102.041 C74.798,101.967 74.879,101.906 74.967,101.869 C82.866,98.597 90.513,92.588 93.342,83.736 C94.563,79.915 95.605,73.86 94.218,69.992 C93.031,66.68 92.155,63.179 89.843,59.054 C87.531,54.929 74.96,47.672 54.718,49.054 C38.454,50.164 16.716,48.185 6.343,69.054 C3.14,75.497 3.369,84.912 7.093,90.804 C13.717,101.283 26.989,109.083 34.76,118.128 C39.866,124.073 42.516,131.835 43.343,139.554 C44.084,146.469 44.802,152.171 46.539,155.263 C49.514,160.56 53.621,158.565 53.17,156.729 L53.17,156.729 Z" id="Shape" stroke="#000000" stroke-width="0.7498" fill="#FFFFFF" sketch:type="MSShapeGroup"></path>
            <path d="M56.584,97.351 C56.584,97.351 58.803,101.445 64.803,102.382 C70.803,103.319 74.974,101.874 74.974,101.874" id="Shape" stroke="#000000" stroke-width="0.7498" sketch:type="MSShapeGroup"></path>
            <g transform="translate(37.000000, 72.000000)" id="Shape" stroke="#000000" stroke-width="0.7498" sketch:type="MSShapeGroup">
                <path d="M10.163,59.886 C8.764,58.48 8.502,55.625 11.101,54.323 C9.284,53.568 10.934,50.484 8.788,48.26 C9.804,48.338 11.069,48.369 11.788,48.823 C9.876,46.098 11.637,44.734 8.35,42.385 C9.978,41.929 11.737,42.507 12.944,43.776 C13.519,39.356 11.711,30.686 8.567,27.576 C7.017,26.043 6.478,28.259 8.226,29.886 L7.038,31.324 C3.578,29.575 2.812,27.219 3.6,24.511 C1.913,22.506 1.871,20.703 3.225,19.073 C1.72,17.438 2.199,15.318 0.35,14.073 C1.495,13.707 2.445,13.778 3.741,14.151 C1.236,10.625 4.512,10.02 2.975,5.056 C4.078,5.702 5.038,6.258 5.85,7.072 C7.929,-0.122 18.78,-2.108 24.038,6.635 C25.213,8.293 25.968,8.268 26.351,6.76 C27.164,3.508 32.556,8.908 26.913,12.635 C27.391,15.121 26.499,16.606 24.475,17.26 C23.99,21.494 20.433,21.706 19.475,19.009 C19.22,20.155 16.715,19.91 16.412,22.072 C15.891,21.33 15.829,20.168 16.85,18.009 C13.866,16.803 12.773,14.869 14.131,13.571 C13.605,12.088 14.751,11.107 16.225,11.571 C18.189,7.461 13.126,6.734 11.694,10.759 C10.735,15.17 13.836,21.373 16.169,27.838 C18.695,34.838 18.831,40.706 18.759,48.013 C18.702,53.723 18.288,60.112 18.159,65.732 C17.966,74.198 17.807,81.201 20.726,81.571 C20.734,82.619 19.863,83.721 18.726,83.509 C18.653,86.083 15.238,84.561 14.198,83.288 C11.757,80.301 11.768,73.397 12.476,65.384 C12.646,62.972 10.44,63.378 10.476,64.821 C10.763,65.906 10.224,66.499 9.617,66.52 C7.513,66.595 8.305,62.659 8.746,61.62 C9.198,60.559 9.747,60.113 10.163,59.886 L10.163,59.886 Z" fill="#FFFFFF"></path>
                <path d="M6.298,10.827 C7.414,10.171 6.596,7.948 5.72,6.928"></path>
                <path d="M6.079,16.827 C5.764,15.313 4.941,14.682 3.53,14.077"></path>
                <path d="M6.267,19.952 C6.505,18.887 4.225,17.931 3.126,19.202"></path>
                <path d="M7.792,24.476 C7.621,23.552 4.812,22.165 3.573,24.624"></path>
                <path d="M20.111,17.015 C19.547,17.45 19.27,18.23 19.541,19.226"></path>
                <path d="M22.018,14.733 C21.537,16.945 22.789,17.663 24.627,17.213"></path>
                <path d="M23.986,11.296 C23.986,12.966 25.856,13.162 27.06,12.542"></path>
                <path d="M16.08,11.53 C17.073,13.1 19.245,12.61 19.264,10.791 C19.297,7.741 15.153,7.782 13.994,8.257"></path>
                <path d="M14.111,13.577 C15.865,15.813 18.216,16.465 20.426,14.523 C23.174,12.108 22.196,6.871 19.055,4.951 C15.28,2.643 9.578,5 8.117,9.316 C7.37,11.524 7.399,14.256 8.204,17.092 C8.738,18.972 9.465,20.891 10.191,22.604 C11.891,26.615 13.641,29.348 14.783,33.655 C16.035,38.376 16.115,42.612 15.86,47.468"></path>
                <path d="M13.987,47.218 C14.151,46.073 13.49,44.669 12.862,43.592"></path>
                <path d="M14.268,52.562 C14.331,50.446 13.187,49.65 11.51,48.609"></path>
                <path d="M13.987,56.405 C13.987,55.113 12.275,53.506 10.784,54.494"></path>
                <path d="M14.331,61.78 C14.83,59.286 11.612,58.89 9.851,60.089"></path>
                <path d="M15.924,57.968 C15.924,57.968 15.674,67.281 15.549,70.906 C15.357,76.479 14.084,80.261 18.799,83.562"></path>
            </g>
            <path d="M52.822,35.332 C71.289,35.332 86.26,36.699 86.26,46.778 C86.26,56.857 71.289,65.028 52.822,65.028 C34.355,65.028 19.384,56.857 19.384,46.778 C19.384,36.699 34.355,35.332 52.822,35.332 L52.822,35.332 Z" id="Shape" stroke="#000000" stroke-width="0.7498" fill="#FFFFFF" sketch:type="MSShapeGroup"></path>
            <path d="M52.822,34.028 C69.84,34.028 83.635,35.232 83.635,44.098 C83.635,52.965 69.84,60.153 52.822,60.153 C35.804,60.153 22.009,52.965 22.009,44.098 C22.009,35.232 35.805,34.028 52.822,34.028 L52.822,34.028 Z" id="Shape" stroke="#000000" stroke-width="0.7498" fill="#FFFFFF" sketch:type="MSShapeGroup"></path>
            <path d="M52.822,34.028 C67.975,34.028 80.26,35.232 80.26,44.098 C80.26,52.965 67.976,60.153 52.822,60.153 C37.668,60.153 25.384,52.965 25.384,44.098 C25.384,35.232 37.669,34.028 52.822,34.028 L52.822,34.028 Z" id="Shape" stroke="#000000" stroke-width="0.7498" fill="#FFFFFF" sketch:type="MSShapeGroup"></path>
            <path d="M18.033,45.944 C23.069,45.506 27.276,49.811 32.918,53.595 C45.279,61.887 59.146,61.887 71.508,53.595 C77.15,49.811 81.357,45.506 86.393,45.944 C89.354,46.202 90.916,48.403 91.415,51.17 C92.071,54.804 89.082,59.738 87.876,61.434 C86.598,63.232 95.085,50.878 87.478,51.768 C83.083,52.282 76.636,56.656 70.404,60.535 C59.3,67.445 45.126,67.445 34.021,60.535 C27.789,56.656 21.335,52.359 16.947,51.768 C10.347,50.878 14.408,62.814 13.688,60.655 C13.012,58.629 12.355,54.804 13.01,51.171 C13.51,48.403 15.071,46.202 18.033,45.944 L18.033,45.944 Z" id="Shape" stroke="#000000" stroke-width="0.7498" fill="#FFFFFF" sketch:type="MSShapeGroup"></path>
            <path d="M13.597,50.811 C19.288,50.373 24.043,54.678 30.419,58.462 C44.389,66.754 60.06,66.754 74.03,58.462 C80.406,54.678 85.16,50.373 90.852,50.811 C94.199,51.069 95.964,53.27 96.528,56.037 C97.268,59.671 94.282,64.026 92.919,65.723 C91.474,67.521 100.675,55.745 92.079,56.634 C87.112,57.149 79.827,61.524 72.784,65.402 C60.234,72.312 44.216,72.312 31.667,65.402 C24.624,61.524 17.33,57.226 12.371,56.634 C8.873,56.217 8.025,58.951 8.027,61.749 C8.027,62.826 8.154,63.914 8.304,64.834 C8.315,64.902 8.348,64.972 8.338,65.037 L8.267,65.497 C8.257,65.563 8.177,65.137 8.163,65.068 C7.98,64.163 7.825,63.099 7.727,61.981 C7.553,59.984 7.561,57.809 7.922,56.037 C8.484,53.27 10.25,51.068 13.597,50.811 L13.597,50.811 Z" id="Shape" stroke="#000000" stroke-width="0.7498" fill="#FFFFFF" sketch:type="MSShapeGroup"></path>
            <path d="M11.913,55.249 C17.853,54.793 22.816,59.274 29.471,63.215 C44.052,71.847 60.408,71.847 74.988,63.215 C81.643,59.275 86.605,54.793 92.545,55.249 C96.039,55.518 97.881,57.809 98.469,60.689 C99.241,64.471 96.076,69.187 94.654,70.952 C93.146,72.824 102.798,60.386 93.825,61.31 C88.641,61.845 81.036,66.4 73.686,70.437 C60.588,77.63 43.87,77.63 30.771,70.437 C23.42,66.4 15.808,61.925 10.632,61.31 C8.088,61.007 6.887,62.297 6.393,64.093 C6.009,65.49 6.053,67.196 6.226,68.693 C6.238,68.801 6.296,68.914 6.266,69.016 L6.125,69.481 C6.085,69.613 6.071,69.207 6.046,69.067 C5.785,67.598 5.661,65.866 5.67,64.184 C5.676,62.957 5.772,61.752 5.989,60.689 C6.577,57.809 8.419,55.518 11.913,55.249 L11.913,55.249 Z" id="Shape" stroke="#000000" stroke-width="0.7498" fill="#FFFFFF" sketch:type="MSShapeGroup"></path>
            <path d="M52.822,52.904 C64.561,52.904 74.135,46.642 74.135,38.966 C74.135,31.29 64.561,25.028 52.822,25.028 C41.083,25.028 31.509,31.289 31.509,38.966 C31.509,46.643 41.083,52.904 52.822,52.904 L52.822,52.904 Z" id="Shape" stroke="#000000" stroke-width="0.7498" fill="#FFFFFF" sketch:type="MSShapeGroup"></path>
            <path d="M52.822,49.029 C63.666,49.029 72.51,43.414 72.51,36.528 C72.51,29.643 63.666,24.028 52.822,24.028 C41.979,24.028 33.134,29.643 33.134,36.528 C33.135,43.414 41.979,49.029 52.822,49.029 L52.822,49.029 Z" id="Shape" stroke="#000000" stroke-width="0.7498" fill="#FFFFFF" sketch:type="MSShapeGroup"></path>
            <path d="M52.822,21.638 C61.417,21.638 68.385,24.383 68.385,30.216 C68.385,36.05 61.417,40.779 52.822,40.779 C44.227,40.779 37.259,36.05 37.259,30.216 C37.259,24.383 44.227,21.638 52.822,21.638 L52.822,21.638 Z" id="Shape" stroke="#000000" stroke-width="0.7498" fill="#FFFFFF" sketch:type="MSShapeGroup"></path>
            <path d="M52.822,21.028 C59.967,21.028 65.76,23.341 65.76,28.255 C65.76,33.17 59.968,37.154 52.822,37.154 C45.676,37.154 39.884,33.17 39.884,28.255 C39.884,23.341 45.677,21.028 52.822,21.028 L52.822,21.028 Z" id="Shape" stroke="#000000" stroke-width="0.7498" fill="#FFFFFF" sketch:type="MSShapeGroup"></path>
            <path d="M52.822,19.528 C57.827,19.528 61.885,21.16 61.885,24.627 C61.885,28.094 57.827,30.904 52.822,30.904 C47.817,30.904 43.759,28.093 43.759,24.627 C43.759,21.161 47.817,19.528 52.822,19.528 L52.822,19.528 Z" id="Shape" stroke="#000000" stroke-width="0.7498" fill="#FFFFFF" sketch:type="MSShapeGroup"></path>
            <path d="M52.822,18.528 C56.792,18.528 60.01,19.801 60.01,22.507 C60.01,25.211 56.792,27.404 52.822,27.404 C48.852,27.404 45.634,25.211 45.634,22.507 C45.634,19.802 48.853,18.528 52.822,18.528 L52.822,18.528 Z" id="Shape" stroke="#000000" stroke-width="0.7498" fill="#FFFFFF" sketch:type="MSShapeGroup"></path>
            <path d="M52.822,17.903 C54.79,17.903 56.385,18.659 56.385,20.264 C56.385,21.869 54.79,23.171 52.822,23.171 C50.854,23.171 49.259,21.869 49.259,20.264 C49.259,18.659 50.854,17.903 52.822,17.903 L52.822,17.903 Z" id="Shape" stroke="#000000" stroke-width="0.7498" fill="#FFFFFF" sketch:type="MSShapeGroup"></path>
            <g transform="translate(45.000000, 0.000000)" stroke="#000000" id="Shape" sketch:type="MSShapeGroup">
                <g transform="translate(0.000000, 2.000000)">
                    <g>
                        <g transform="translate(3.000000, 12.000000)">
                            <path d="M3.844,0.738 C4.296,1.612 4.145,3.001 3.649,3.936 C2.5,6.104 0.133,4.814 1.277,2.657 C1.773,1.722 2.864,0.84 3.844,0.738 L3.844,0.738 Z" stroke-width="0.4997" fill="#FFFFFF"></path>
                            <path d="M2.345,3.516 L3.384,1.591" stroke-width="0.216"></path>
                        </g>
                        <g transform="translate(2.000000, 11.000000)">
                            <path d="M4.168,0.805 C4.151,1.789 3.359,2.94 2.478,3.528 C0.437,4.89 -1.034,2.631 0.998,1.275 C1.879,0.687 3.258,0.429 4.168,0.805 L4.168,0.805 Z" stroke-width="0.4997" fill="#FFFFFF"></path>
                            <path d="M1.531,2.537 L3.359,1.336" stroke-width="0.216"></path>
                        </g>
                        <g transform="translate(0.000000, 9.000000)">
                            <path d="M5.547,1.903 C5.065,2.762 3.821,3.398 2.767,3.498 C0.324,3.727 0.103,1.041 2.534,0.812 C3.588,0.714 4.924,1.142 5.547,1.903 L5.547,1.903 Z" stroke-width="0.4997" fill="#FFFFFF"></path>
                            <path d="M2.402,2.177 L4.582,1.987" stroke-width="0.216"></path>
                        </g>
                        <g transform="translate(0.000000, 7.000000)">
                            <path d="M5.572,2.051 C4.909,2.78 3.555,3.121 2.506,2.983 C0.074,2.66 0.459,-0.008 2.88,0.314 C3.929,0.452 5.135,1.168 5.572,2.051 L5.572,2.051 Z" stroke-width="0.4997" fill="#FFFFFF"></path>
                            <path d="M2.446,1.613 L4.612,1.916" stroke-width="0.216"></path>
                        </g>
                        <g transform="translate(1.000000, 4.000000)">
                            <path d="M4.795,3.725 C3.899,4.132 2.519,3.91 1.61,3.367 C-0.495,2.108 0.914,-0.19 3.01,1.063 C3.919,1.606 4.743,2.741 4.795,3.725 L4.795,3.725 Z" stroke-width="0.4997" fill="#FFFFFF"></path>
                            <path d="M2.098,2.086 L3.967,3.222" stroke-width="0.216"></path>
                        </g>
                        <g transform="translate(2.000000, 2.000000)">
                            <path d="M4.477,4.276 C3.508,4.452 2.225,3.9 1.476,3.151 C-0.258,1.416 1.669,-0.468 3.396,1.259 C4.144,2.009 4.667,3.31 4.477,4.276 L4.477,4.276 Z" stroke-width="0.4997" fill="#FFFFFF"></path>
                            <path d="M2.261,2.028 L3.797,3.586" stroke-width="0.216"></path>
                        </g>
                        <g transform="translate(4.000000, 0.000000)">
                            <path d="M2.953,5.363 C2.007,5.091 1.103,4.026 0.765,3.022 C-0.019,0.697 2.545,-0.134 3.325,2.18 C3.662,3.185 3.552,4.582 2.953,5.363 L2.953,5.363 Z" stroke-width="0.4997" fill="#FFFFFF"></path>
                            <path d="M1.967,2.365 L2.65,4.443" stroke-width="0.216"></path>
                        </g>
                    </g>
                    <g transform="translate(8.000000, 0.000000)">
                        <g transform="translate(0.000000, 12.000000)">
                            <path d="M0.801,0.738 C0.348,1.612 0.5,3.001 0.996,3.936 C2.145,6.104 4.512,4.814 3.368,2.657 C2.871,1.722 1.78,0.84 0.801,0.738 L0.801,0.738 Z" stroke-width="0.4997" fill="#FFFFFF"></path>
                            <path d="M2.299,3.516 L1.261,1.591" stroke-width="0.216"></path>
                        </g>
                        <g transform="translate(1.000000, 11.000000)">
                            <path d="M0.476,0.805 C0.493,1.789 1.285,2.94 2.166,3.528 C4.207,4.89 5.677,2.631 3.646,1.275 C2.765,0.687 1.386,0.429 0.476,0.805 L0.476,0.805 Z" stroke-width="0.4997" fill="#FFFFFF"></path>
                            <path d="M3.113,2.537 L1.285,1.336" stroke-width="0.216"></path>
                        </g>
                        <g transform="translate(2.000000, 9.000000)">
                            <path d="M0.097,1.903 C0.579,2.762 1.823,3.398 2.877,3.498 C5.32,3.727 5.542,1.041 3.11,0.812 C2.056,0.714 0.721,1.142 0.097,1.903 L0.097,1.903 Z" stroke-width="0.4997" fill="#FFFFFF"></path>
                            <path d="M3.242,2.177 L1.063,1.987" stroke-width="0.216"></path>
                        </g>
                        <g transform="translate(2.000000, 7.000000)">
                            <path d="M0.073,2.051 C0.735,2.78 2.089,3.121 3.139,2.983 C5.571,2.66 5.186,-0.008 2.765,0.314 C1.715,0.452 0.509,1.168 0.073,2.051 L0.073,2.051 Z" stroke-width="0.4997" fill="#FFFFFF"></path>
                            <path d="M3.198,1.613 L1.032,1.916" stroke-width="0.216"></path>
                        </g>
                        <g transform="translate(1.000000, 4.000000)">
                            <path d="M0.85,3.725 C1.746,4.132 3.125,3.91 4.035,3.367 C6.141,2.108 4.731,-0.19 2.635,1.063 C1.726,1.606 0.901,2.741 0.85,3.725 L0.85,3.725 Z" stroke-width="0.4997" fill="#FFFFFF"></path>
                            <path d="M3.546,2.086 L1.677,3.222" stroke-width="0.216"></path>
                        </g>
                        <g transform="translate(1.000000, 2.000000)">
                            <path d="M0.167,4.276 C1.136,4.452 2.419,3.9 3.168,3.151 C4.903,1.416 2.975,-0.468 1.249,1.259 C0.5,2.009 -0.022,3.31 0.167,4.276 L0.167,4.276 Z" stroke-width="0.4997" fill="#FFFFFF"></path>
                            <path d="M2.383,2.028 L0.848,3.586" stroke-width="0.216"></path>
                        </g>
                        <g>
                            <path d="M0.691,5.363 C1.637,5.091 2.542,4.026 2.88,3.022 C3.664,0.697 1.099,-0.134 0.319,2.18 C-0.018,3.185 0.092,4.582 0.691,5.363 L0.691,5.363 Z" stroke-width="0.4997" fill="#FFFFFF"></path>
                            <path d="M1.678,2.365 L0.994,4.443" stroke-width="0.216"></path>
                        </g>
                    </g>
                </g>
                <g transform="translate(6.000000, 15.000000)">
                    <path d="M1.822,0.269 C2.635,0.824 3.162,2.118 3.17,3.176 C3.188,5.63 0.492,5.618 0.475,3.176 C0.467,2.117 1.009,0.823 1.822,0.269 L1.822,0.269 Z" stroke-width="0.4997" fill="#FFFFFF"></path>
                    <path d="M1.822,3.425 L1.822,1.237" stroke-width="0.216"></path>
                </g>
                <path d="M7.822,6.232 C8.399,5.838 8.832,5.073 9.037,4.283 C9.123,4.039 9.172,3.749 9.169,3.412 L9.168,3.375 L9.168,3.362 L9.169,3.325 C9.171,2.988 9.123,2.698 9.037,2.453 C8.831,1.664 8.399,0.898 7.822,0.505 C7.171,0.948 6.694,1.866 6.533,2.758 C6.496,2.93 6.475,3.118 6.474,3.325 L6.474,3.362 L6.474,3.375 L6.474,3.412 C6.475,3.618 6.496,3.808 6.533,3.979 C6.694,4.871 7.171,5.789 7.822,6.232 L7.822,6.232 Z" stroke-width="0.4997" fill="#FFFFFF"></path>
                <path d="M7.822,3.077 L7.822,5.737" stroke-width="0.216"></path>
                <path d="M7.822,5.56 C9.747,6.873 10.992,9.934 11.01,12.44 C11.052,18.246 4.674,18.219 4.633,12.44 C4.616,9.934 5.897,6.872 7.822,5.56 L7.822,5.56 Z" stroke-width="0.4997" fill="#FFFFFF"></path>
            </g>
            <path d="M52.822,7.33 C53.038,7.467 53.177,7.786 53.179,8.047 C53.184,8.651 52.47,8.649 52.465,8.047 C52.463,7.786 52.606,7.467 52.822,7.33 L52.822,7.33 Z" id="Shape" fill="#000000" sketch:type="MSShapeGroup"></path>
            <path d="M54.25,9.071 C54.174,9.463 53.489,10.481 52.537,9.646 C52.433,9.556 52.331,9.466 52.178,9.525 C51.982,9.601 51.896,9.731 51.892,9.864 L51.892,9.865 C51.89,9.926 51.903,9.99 51.93,10.05 L51.93,10.05 C51.958,10.114 52,10.176 52.053,10.227 C52.473,10.632 52.877,10.03 53.355,10.443 C53.577,10.635 53.603,10.86 53.522,11.059 C53.394,11.373 53.207,11.318 52.937,11.491 C52.041,12.088 53.227,12.493 53.445,12.447 L53.454,12.547 C52.879,12.56 52.62,12.427 52.408,12.109 C52.247,11.643 52.488,11.3 52.905,11.137 L52.905,11.137 C53.071,11.072 53.137,10.958 53.111,10.877 C53.052,10.697 52.76,10.778 52.641,10.801 C52.256,10.874 51.936,10.807 51.708,10.587 C51.607,10.489 51.527,10.373 51.474,10.25 L51.474,10.249 C51.419,10.122 51.391,9.985 51.395,9.851 C51.406,9.529 51.587,9.221 52.001,9.062 C52.434,8.896 52.648,9.083 52.865,9.273 C53.385,9.728 53.419,9.093 53.437,9.075 L54.25,9.071 L54.25,9.071 Z" id="Shape" stroke="#000000" stroke-width="0.216" fill="#000000" sketch:type="MSShapeGroup"></path>
        </g>
    </g>
</svg>